<?xml version="1.0" encoding="UTF-8"?>
<svg id="Modo_de_isolamento" xmlns="http://www.w3.org/2000/svg" version="1.1" viewBox="0 0 259.2 259.2">
  <!-- Generator: Adobe Illustrator 30.8.0, SVG Export Plug-In . SVG Version: 2.1.4 Build 28)  -->
  <defs>
    <style>
      .st0 {
        fill: #f60;
      }

      .st0, .st1 {
        fill-rule: evenodd;
      }

      .st1, .st2 {
        fill: #1a2e46;
      }
    </style>
  </defs>
  <path class="st0" d="M184.08,175.36c-3.15-.96-5.08-6.02-8.32-4.47-.39,2.89,4.42,5.28,5.87,7.05-.69,2.07-5.92,6.84-7.37,7.76-2.88-1.22-3.77-5.97-7-5.37-1.18,3.35,3.04,4.86,4.04,7.94-2.16,1.39-5.47,4.44-8.14,5.2-2.85-2.57-2.39-6.7-5.82-6.36-1.3,3.54,2.57,5.06,2.7,8.35-2.65,1.25-5.98,3.29-8.84,3.85-2.01-2.62-1.33-7.7-5.01-7.13-.83,2.86,1.22,5.1,1.72,7.98-1.27.97-2.78,1.25-4.47,1.68-1.84.47-3.12.85-5.18,1.06-.43-3.12-.8-8.05-2.81-7.85-2.76.28-.11,5.71-.52,8.53-1.72.56-8.01,1.09-10,.64-.07-2.08.9-8.32-1.48-8.3-2.35.02-1.32,6.42-1.48,8.35-3.1.29-6.92-.29-9.98-.8-.15-2.56,1.53-6.06.42-8.07-2.97-1.63-3.01,4.27-3.55,7.31-7.01-.35-13.59-5.97-12.98.28,8.69,4.23,25.66,5.68,36.94,4.39,22.76-2.59,41.02-14.06,54.25-30.74,1.13-1.43,9.63-12.08,6.31-13.1-2.24-.69-4.81,7.26-9.28,11.82"/>
  <path class="st1" d="M62.77,78.12c1.42.5,2.48,1.69,3.38,2.46.22.19,1.47,1.32,1.67,1.43.8.43-.44.24.94.32,2.43.14-1.59.49,1.05-.22,3.13-.84-4.11-5.36-4.75-6.68.87-1.97,5.19-6.37,7.1-6.89,1.87,1.63,4.43,6.36,6.28,5.11.81-.88.98-.68.34-2.18-.16-.38-.95-1.21-1.37-1.69-1.07-1.21-2.29-2.36-2.67-3.74,1.46-1.47,6.49-5.11,8.11-5.6,1.18,1,1.75,2.38,2.58,3.89.22.41.89,1.69,1.11,1.92.5.53.25.53,1.05.6,4.3.35-1.21-5.75-1.62-8.5,2.06-1.19,6.86-3.84,9.4-3.99,1.9,5.85,1.78,7.14,4.65,7.03,1.12-3.16-1.82-5.26-1.64-8.6l9.37-2.16s.17.06.24.11c1.32,2.31.05,8.86,3.64,7.37,1.21-1.37-.33-5.91-.22-8.4,3.13-.38,6.8-1.29,10.27-.74.03,2.73-.44,6.12.7,8.27,2.11.21,2.22-.62,2.27-2.7.04-1.87-.03-3.84-.02-5.74l10.2.75c.53,2.68-1.61,6.36-.4,8.37,3.19,1.73,3.02-5.26,3.67-7.53,7.76.43,13.04,5.48,14.28,1.13-3.26-4.07-27.99-6.94-36.99-5.52-7.22,1.14-11.51,1.76-17.91,3.9-17.38,5.81-33.34,18.61-42.36,33.69-.9,1.5-4.69,6.35-1.7,6.76,2.31.31,4.96-7.91,9.36-12.22"/>
  <path class="st1" d="M111.7,36.66c-12.06,2.2-20.72,3.97-31.76,10.24-9.19,5.22-17.44,11.41-23.72,18.59-3.32,3.8-6.29,7.43-9.14,11.77-.7,1.06-3.73,6.05-3.84,6.86-.2,1.52.94,2.47,2.27,1.46,1.41-1.07,5.41-12.23,21.6-26.3,14.94-12.99,38.6-22.26,63.52-20.29,4.99.39,12.69,1.83,17.45,3.29,1.51.46,7.01,3.22,8.07,1.35,2.24-3.97-28.9-9.8-44.45-6.96"/>
  <path class="st0" d="M91.77,199.3c-.38-1.97-2.55-2.7-4-3.62-3.18-2.03-12.22-8.48-14.65-8.21-1.39,2.84-1.26,9.08-1.54,12.64-.18,2.23-.43,4.26-.63,6.46-.66,7.24,3.35,3.43,12.01-1.64,2.06-1.21,7.88-4.14,8.81-5.63"/>
  <path class="st1" d="M174.26,66.52c1.5-2.14,1.26-8.13,1.48-11.11.2-2.7,1.25-9.42.43-11.75-2.6-.57-19.99,10.38-19.99,10.38-1.47,2.11,1.19,2.91,2.99,4.03l9.37,5.98c1.82,1.17,3.25,2.84,5.72,2.48"/>
  <path class="st1" d="M170.96,34.37c1.34.85.93.8,2.72,1.12,1.5-2.7,6.32-11.03,8.12-12.85.65,3.78,2.4,19.28,3.33,20.95,2.2.23,2.74-2.06,3.67-3.62,1.12-1.88,2.02-3.16,3.14-4.96,1.67-2.7,5.75-7.99,5.79-10.45l-2.05-.98c-2.54,2.01-5.69,9.09-8.17,12.39-1.27-1.7-2.92-17.03-3.6-20.52-2.51.27-2.82,2.09-4.04,4.06-1.24,2-1.98,3.08-3.17,4.96-1.18,1.87-5.54,8.15-5.73,9.9"/>
  <path class="st0" d="M60.73,233.09c-6.76.81-5.48-3.34-8.2-5.9l-2.29.98c.28,3.79,4.12,7.56,7.44,8.29,5.25,1.16,9.27-2.21,8.11-7.61-.81-3.78-5.7-7.67-4.55-10.96.71-2.05,3.25-2.24,5.08-1.19,2.1,1.21,2.15,2.65,3.73,4.39l2.54-.77c-.06-5.32-9.59-11.22-14.13-4.85-5.12,7.2,7.1,10.82,2.28,17.62"/>
  <path class="st1" d="M160.86,55.36c.98,1.01,9.91,6.79,11.26,7.08.73-1.54,1.18-11.82,1.22-14.33-1.64.17-7.39,3.76-9.49,4.93-.47.26-1.08.5-1.69.92l-1.3,1.4Z"/>
  <g>
    <path class="st1" d="M159.66,95.66c-.96-1.2-2.19-2.1-3.68-2.68-1.5-.58-3.02-.75-4.57-.51-1.51.23-2.89.85-4.13,1.84-1.24,1-2.14,2.23-2.69,3.69-.55,1.46-.7,3.01-.45,4.66.37,2.44,1.52,4.29,3.43,5.54s4.07,1.7,6.45,1.34c1.59-.24,3-.85,4.24-1.84,1.24-.98,2.14-2.2,2.69-3.65.55-1.45.73-2.83.53-4.14-.25-1.63-.85-3.04-1.81-4.25Z"/>
    <path class="st1" d="M64.82,109.54c-1.17-1.26-2.65-2.01-4.45-2.27-1.36-.2-3.51-.07-6.45.38l-1.46.22,2.54,16.6,2.37-.36c2.83-.43,4.78-.91,5.83-1.43,1.47-.73,2.54-1.82,3.23-3.26.69-1.44.89-3.11.6-5-.3-1.99-1.04-3.61-2.21-4.87Z"/>
    <path class="st1" d="M177.43,111.66l-5.09-27.56c-.55-2.97-3.44-5.02-6.43-4.56l-124.68,19.37c-2.98.46-4.98,3.28-4.43,6.25l5.09,27.56c.55,2.97,3.44,5.02,6.43,4.56l124.68-19.37c2.98-.46,4.98-3.28,4.43-6.25ZM68.6,119.7c-.65,1.71-1.63,3.04-2.93,4-1.3.96-3.24,1.64-5.79,2.03l-6.54,1-3.14-20.55,4.25-.65c3.08-.47,5.35-.56,6.82-.28,2.09.39,3.83,1.36,5.22,2.91s2.26,3.52,2.62,5.9c.31,2.05.14,3.93-.51,5.64ZM74.6,123.53l-3.14-20.55,11.78-1.8.31,2.02-9.73,1.49.98,6.43,5.93-.91.3,2-5.93.91,1.23,8.06,9.64-1.47.31,2.04-11.69,1.79ZM98.84,118.32c-.96,1.27-2.25,2.03-3.87,2.28-1.26.19-2.44.03-3.56-.48-1.12-.51-2.22-1.48-3.31-2.91l1.58-1.32c1.57,2.08,3.16,2.99,4.77,2.74.69-.1,1.32-.37,1.88-.78.56-.42.96-.92,1.19-1.5.23-.58.3-1.18.21-1.79-.1-.68-.44-1.32-1-1.92-.79-.82-2.11-1.57-3.96-2.26-1.92-1.03-3.12-1.81-3.62-2.33-.88-.85-1.4-1.84-1.58-2.98-.14-.9-.05-1.74.27-2.54.31-.79.83-1.47,1.54-2.01.71-.55,1.53-.89,2.44-1.03.96-.15,1.9-.04,2.81.31.91.36,1.94,1.11,3.08,2.25l-1.48,1.52c-.92-.9-1.68-1.47-2.27-1.72-.6-.24-1.22-.32-1.86-.22-.82.13-1.46.48-1.91,1.06-.45.59-.62,1.24-.51,1.97.07.44.23.86.48,1.26s.66.8,1.23,1.2c.31.23,1.3.78,2.97,1.66,1.97,1.04,3.36,1.94,4.15,2.7.79.76,1.26,1.65,1.42,2.68.23,1.5-.14,2.88-1.1,4.15ZM109.31,118.23l-2.09.32-2.83-18.55-4.59.7-.3-1.99,11.28-1.72.31,1.99-4.6.7,2.83,18.55ZM116.54,117.12l-3.14-20.55,2.05-.31,3.14,20.55-2.05.31ZM138.95,113.7l-15.9-13.46,2.37,15.53-2.13.33-3.14-20.55.44-.07,16.06,13.64-2.4-15.73,2.02-.31,3.14,20.55-.47.07ZM161.59,107.46c-1.79,2.25-4.19,3.6-7.19,4.06-3.05.46-5.78-.18-8.19-1.94-2.42-1.76-3.82-3.96-4.22-6.59-.3-1.97-.11-3.87.59-5.7s1.79-3.36,3.3-4.57c1.51-1.21,3.22-1.96,5.14-2.25,3.1-.47,5.86.17,8.27,1.93s3.85,4.16,4.31,7.2c.46,3-.21,5.63-2,7.88Z"/>
  </g>
  <g>
    <path class="st1" d="M144.17,142.27c.28-.63.36-1.3.25-2.01-.1-.68-.39-1.28-.85-1.78-.46-.51-1.01-.84-1.65-.99-.64-.15-1.66-.12-3.08.09l-3.62.55,1.07,6.98,3.54-.51c1.37-.21,2.36-.49,2.98-.85.62-.36,1.07-.85,1.35-1.48Z"/>
    <path class="st1" d="M179.18,135.52c-.96-1.2-2.19-2.1-3.68-2.68-1.5-.58-3.02-.75-4.57-.51-1.51.23-2.89.85-4.13,1.84-1.24,1-2.14,2.23-2.69,3.69-.55,1.46-.7,3.01-.45,4.66.37,2.44,1.52,4.29,3.43,5.54,1.92,1.26,4.07,1.7,6.45,1.34,1.59-.24,3-.86,4.24-1.84,1.24-.98,2.14-2.2,2.69-3.65.55-1.45.73-2.83.53-4.14-.25-1.63-.85-3.04-1.81-4.25Z"/>
    <path class="st1" d="M203.49,149.05l-4.69-25.39c-.51-2.74-3.17-4.63-5.92-4.2l-114.86,17.85c-2.75.43-4.59,3.02-4.08,5.75l4.69,25.39c.51,2.74,3.17,4.63,5.92,4.2l114.86-17.85c2.75-.43,4.59-3.02,4.08-5.75ZM112.01,159.75c-1.43.94-3.08,1.56-4.96,1.85-3.6.55-6.63-.21-9.07-2.29-2.05-1.76-3.26-3.92-3.65-6.48-.46-3,.21-5.69,2.01-8.08,1.8-2.38,4.28-3.81,7.45-4.3,1.92-.29,3.71-.18,5.38.35,1.66.53,3.09,1.4,4.29,2.63l-1.45,1.47c-1.06-1.03-2.27-1.75-3.61-2.15-1.34-.4-2.76-.49-4.26-.26-1.64.25-3.1.88-4.38,1.87-1.27,1-2.2,2.22-2.76,3.66-.57,1.44-.73,3-.47,4.66.38,2.5,1.55,4.39,3.5,5.65,1.95,1.27,4.24,1.7,6.85,1.3,2.88-.44,5.12-1.94,6.7-4.48l1.82.98c-.83,1.46-1.95,2.66-3.38,3.61ZM120.09,159.42l-3.14-20.55,11.78-1.8.31,2.02-9.73,1.49.98,6.43,5.93-.91.31,1.99-5.93.91,1.23,8.06,9.64-1.47.31,2.04-11.69,1.79ZM146.63,155.36l-7.35-8.66-2.67.41,1.46,9.56-2.05.31-3.14-20.55,4.09-.63c2.28-.35,3.84-.49,4.68-.43,1.26.09,2.35.54,3.25,1.34.91.8,1.46,1.87,1.67,3.21.17,1.13.06,2.15-.34,3.07-.4.92-1.05,1.68-1.97,2.27-.92.59-1.74.94-2.46,1.05l7.35,8.66-2.52.38ZM156.9,153.8l-2.09.32-2.83-18.55-4.59.7-.31-1.99,11.28-1.72.3,1.99-4.6.7,2.83,18.55ZM181.11,147.32c-1.79,2.25-4.19,3.6-7.19,4.06-3.05.46-5.78-.18-8.19-1.95-2.42-1.76-3.82-3.96-4.23-6.59-.3-1.97-.1-3.87.59-5.7.69-1.84,1.79-3.36,3.3-4.57,1.51-1.21,3.22-1.96,5.14-2.25,3.1-.47,5.86.17,8.27,1.93s3.85,4.16,4.31,7.2c.46,3-.21,5.63-2,7.88Z"/>
  </g>
  <path class="st0" d="M202.88,168.33c-2.28,0-2.73,2.04-4.68,5.35-14.71,24.97-44.59,42.14-74.76,41.84-17.72-.18-29.96-5.56-31.23-5.5-2.02.09-2.37,1.73-.61,2.77,2.1,1.24,13.15,3.98,16.26,4.53,28.63,5.1,59.25-4.6,79.13-24.51,4.88-4.89,10.26-11.26,14.04-17.6,1.14-1.91,3.64-4.56,1.86-6.88"/>
  <path class="st2" d="M219.47,183.01c.5-.36,1.16-1.07,1.47-1.88.46-1.17.09-1.95-.65-2.24-.77-.3-1.37,0-2.27,1.01-1.19,1.37-2.36,1.78-3.43,1.36-1.43-.56-2.15-2.17-1.41-4.08.35-.9.92-1.58,1.4-1.96l1.01.86c-.36.26-.9.79-1.22,1.61-.37.95-.03,1.7.63,1.96.73.29,1.27-.12,2.16-1.1,1.19-1.31,2.27-1.8,3.58-1.28,1.56.61,2.18,2.25,1.36,4.35-.38.97-.97,1.78-1.58,2.26l-1.07-.88Z"/>
  <path class="st2" d="M215.56,182.98c2.93,1.95,2.86,4.83,1.59,6.74-1.43,2.15-4.1,2.76-6.6,1.09-2.65-1.76-3.06-4.54-1.6-6.73,1.51-2.28,4.19-2.72,6.62-1.11M211.46,189.32c1.74,1.15,3.71,1.03,4.65-.38.91-1.38.31-3.27-1.48-4.46-1.34-.89-3.5-1.35-4.63.35-1.13,1.7-.05,3.48,1.46,4.49"/>
  <path class="st2" d="M204.99,194.88c-.91-.66-1.7-1.21-2.45-1.68l.89-1.22,1.54,1.05.05-.06c-.78-1.1-.82-2.42-.14-3.36.12-.16.21-.26.34-.36l1.32.96c-.13.12-.26.25-.4.44-.72.99-.48,2.23.43,3.18.17.17.37.36.61.54l4.11,2.98-1.01,1.38-5.3-3.85Z"/>
  <path class="st2" d="M199.31,192.64c.45.38.52,1.02.06,1.53-.41.45-1.05.46-1.49.07-.46-.41-.51-1.06-.09-1.53.43-.48,1.06-.48,1.51-.07M207.13,202.19l-7.11-6.33,1.15-1.29,7.11,6.33-1.15,1.29Z"/>
  <path class="st2" d="M196.99,206.31c1.69,1.62,3.42,1.24,4.64.01.87-.88,1.25-1.56,1.51-2.22l1.09.66c-.24.63-.75,1.59-1.81,2.66-2.07,2.08-4.67,1.96-6.71-.06-2.04-2.02-2.45-4.82-.49-6.79,2.19-2.2,4.71-.86,5.95.37.25.25.42.47.53.61l-4.71,4.74ZM199.69,201.84c-.77-.79-2.31-1.66-3.69-.28-1.23,1.24-.63,2.92.12,3.87l3.56-3.59Z"/>
  <path class="st2" d="M187.08,204.7l1.81,2.05,1.86-1.64.87.99-1.86,1.64,3.39,3.85c.78.89,1.47,1.17,2.2.53.34-.3.55-.56.67-.75l.92.92c-.16.32-.49.75-1,1.19-.61.53-1.26.77-1.88.69-.71-.06-1.4-.58-2.14-1.42l-3.43-3.9-1.11.97-.87-.99,1.11-.98-1.51-1.71.97-1.46Z"/>
  <path class="st2" d="M188.58,212.98c2.07,2.85,1,5.52-.87,6.88-2.09,1.51-4.8,1.15-6.57-1.28-1.87-2.58-1.28-5.32.85-6.86,2.21-1.61,4.88-1.08,6.59,1.27M182.52,217.49c1.23,1.69,3.12,2.26,4.49,1.26,1.34-.97,1.43-2.96.17-4.69-.95-1.31-2.8-2.49-4.46-1.29-1.66,1.2-1.26,3.25-.2,4.71"/>
  <path class="st2" d="M174.69,219.97c-.56-.97-1.05-1.8-1.55-2.54l1.32-.75.98,1.59.07-.04c-.26-1.32.24-2.54,1.25-3.12.17-.1.3-.15.46-.19l.81,1.41c-.17.06-.34.12-.54.24-1.06.61-1.35,1.84-.91,3.08.08.23.19.48.33.74l2.52,4.4-1.48.85-3.26-5.68Z"/>
  <path class="st2" d="M162.8,227.83c.96,2.14,2.71,2.44,4.3,1.76,1.14-.49,1.74-.98,2.23-1.49l.76,1.02c-.45.49-1.29,1.19-2.68,1.79-2.69,1.15-5.06.07-6.19-2.57-1.13-2.64-.46-5.39,2.09-6.47,2.86-1.22,4.69.97,5.38,2.58.14.32.21.59.26.76l-6.15,2.63ZM166.98,224.7c-.41-1.02-1.52-2.41-3.31-1.64-1.61.69-1.68,2.47-1.34,3.63l4.65-1.99Z"/>
  <path class="st2" d="M92.01,225.37l.56,5.64c.1.92.17,1.74.17,2.55h.06c.39-.7.85-1.4,1.36-2.17l3.05-4.77,1.76.42-5.87,8.38-1.61-.39-1.29-10.1,1.8.43Z"/>
  <path class="st2" d="M99.8,237.18l1.79-9.35,1.7.33-1.79,9.35-1.7-.33ZM103.99,225.57c-.09.58-.61.96-1.28.84-.6-.12-.94-.66-.82-1.24.11-.6.65-.98,1.27-.86.64.12.95.66.84,1.26"/>
  <path class="st2" d="M148.94,234.9c.58.2,1.54.33,2.38.13,1.22-.3,1.65-1.05,1.46-1.81-.19-.8-.78-1.13-2.13-1.28-1.81-.19-2.81-.92-3.08-2.02-.36-1.49.55-3.01,2.53-3.49.94-.23,1.82-.16,2.41.02l-.12,1.32c-.42-.14-1.16-.28-2.02-.08-.99.24-1.41.95-1.24,1.64.19.76.82.97,2.14,1.14,1.75.22,2.77.82,3.1,2.2.39,1.62-.59,3.08-2.79,3.61-1.01.25-2.01.23-2.75,0l.11-1.38Z"/>
  <path class="st2" d="M109.66,238.99l.02-1.21h-.06c-.62.66-1.72,1.2-3.07,1.02-1.91-.25-2.71-1.72-2.54-3.08.29-2.28,2.48-3.27,6.13-2.78l.03-.2c.1-.78.07-2.21-1.86-2.46-.88-.11-1.83.04-2.55.38l-.25-1.18c.85-.41,2.02-.59,3.21-.44,2.89.37,3.34,2.43,3.09,4.32l-.45,3.53c-.11.82-.17,1.62-.14,2.28l-1.56-.2ZM110.02,234.14c-1.87-.28-4.04-.22-4.27,1.61-.14,1.11.53,1.73,1.41,1.85,1.23.16,2.11-.52,2.48-1.29.08-.17.14-.36.17-.53l.21-1.64Z"/>
  <path class="st2" d="M136.65,231.97c-.16-.97-.32-1.76-.51-2.53l1.51-.25.36,1.54h.04c.32-.98,1.26-2.03,2.81-2.3,1.3-.22,3.45.22,3.99,3.44l.94,5.6-1.71.29-.91-5.41c-.25-1.51-1.03-2.68-2.64-2.41-1.13.19-1.86,1.13-1.99,2.13-.04.23-.03.52.02.81l.95,5.64-1.71.29-1.15-6.85Z"/>
  <path class="st2" d="M123.61,230.26c-.06.69-.12,1.45-.15,2.61l-.16,5.52c-.06,2.18-.53,3.51-1.48,4.31-.95.84-2.29,1.07-3.49,1.04-1.14-.03-2.39-.34-3.14-.88l.47-1.3c.62.41,1.59.79,2.77.83,1.77.05,3.09-.84,3.16-3.23l.03-1.06h-.04c-.56.87-1.6,1.55-3.07,1.51-2.36-.07-3.99-2.12-3.92-4.76.09-3.23,2.25-4.99,4.43-4.93,1.65.05,2.53.94,2.92,1.74h.04s.12-1.43.12-1.43l1.51.04ZM121.71,233.97c0-.29,0-.55-.08-.79-.29-1.01-1.11-1.86-2.37-1.9-1.65-.05-2.87,1.32-2.93,3.52-.05,1.87.85,3.45,2.71,3.5,1.06.03,2.05-.61,2.45-1.7.11-.29.16-.63.16-.92l.05-1.71Z"/>
  <path class="st2" d="M127.59,235.26c.2,2.33,1.76,3.19,3.48,3.07,1.24-.08,1.97-.35,2.6-.67l.38,1.22c-.59.32-1.61.7-3.12.81-2.92.2-4.8-1.6-5-4.47-.2-2.87,1.34-5.24,4.1-5.43,3.1-.21,4.11,2.46,4.23,4.21.02.35,0,.63,0,.81l-6.67.46ZM132.56,233.68c-.06-1.1-.64-2.77-2.59-2.64-1.75.12-2.4,1.78-2.46,2.99l5.04-.35Z"/>
</svg>