<?xml version="1.0" encoding="UTF-8"?>
<svg id="Modo_de_isolamento" xmlns="http://www.w3.org/2000/svg" version="1.1" viewBox="0 0 259.2 259.2">
  <defs>
    <style>
      .st0 {
        fill: #f60;
      }
      .st0, .st1 {
        fill-rule: evenodd;
      }
      .st1, .st2 {
        fill: #1a2e46;
      }
    </style>
  </defs>
  <path class="st0" d="M184.08,175.36c-3.15-.96-5.08-6.02-8.32-4.47-.39,2.89,4.42,5.28,5.87,7.05-.69,2.07-5.92,6.84-7.37,7.76-2.88-1.22-3.77-5.97-7-5.37-1.18,3.35,3.04,4.86,4.04,7.94-2.16,1.39-5.47,4.44-8.14,5.2-2.85-2.57-2.39-6.7-5.82-6.36-1.3,3.54,2.57,5.06,2.7,8.35-2.65,1.25-5.98,3.29-8.84,3.85-2.01-2.62-1.33-7.7-5.01-7.13-.83,2.86,1.22,5.1,1.72,7.98-1.27.97-2.78,1.25-4.47,1.68-1.84.47-3.12.85-5.18,1.06-.43-3.12-.8-8.05-2.81-7.85-2.76.28-.11,5.71-.52,8.53-1.72.56-8.01,1.09-10,.64-.07-2.08.9-8.32-1.48-8.3-2.35.02-1.32,6.42-1.48,8.35-3.1.29-6.92-.29-9.98-.8-.15-2.56,1.53-6.06.42-8.07-2.97-1.63-3.01,4.27-3.55,7.31-7.01-.35-13.59-5.97-12.98.28,8.69,4.23,25.66,5.68,36.94,4.39,22.76-2.59,41.02-14.06,54.25-30.74,1.13-1.43,9.63-12.08,6.31-13.1-2.24-.69-4.81,7.26-9.28,11.82"/>
  <path class="st1" d="M62.77,78.12c1.42.5,2.48,1.69,3.38,2.46.22.19,1.47,1.32,1.67,1.43.8.43-.44.24.94.32,2.43.14-1.59.49,1.05-.22,3.13-.84-4.11-5.36-4.75-6.68.87-1.97,5.19-6.37,7.1-6.89,1.87,1.63,4.43,6.36,6.28,5.11.81-.88.98-.68.34-2.18-.16-.38-.95-1.21-1.37-1.69-1.07-1.21-2.29-2.36-2.67-3.74,1.46-1.47,6.49-5.11,8.11-5.6,1.18,1,1.75,2.38,2.58,3.89.22.41.89,1.69,1.11,1.92.5.53.25.53,1.05.6,4.3.35-1.21-5.75-1.62-8.5,2.06-1.19,6.86-3.84,9.4-3.99,1.9,5.85,1.78,7.14,4.65,7.03,1.12-3.16-1.82-5.26-1.64-8.6l9.37-2.16s.17.06.24.11c1.32,2.31.05,8.86,3.64,7.37,1.21-1.37-.33-5.91-.22-8.4,3.13-.38,6.8-1.29,10.27-.74.03,2.73-.44,6.12.7,8.27,2.11.21,2.22-.62,2.27-2.7.04-1.87-.03-3.84-.02-5.74l10.2.75c.53,2.68-1.61,6.36-.4,8.37,3.19,1.73,3.02-5.26,3.67-7.53,7.76.43,13.04,5.48,14.28,1.13-3.26-4.07-27.99-6.94-36.99-5.52-7.22,1.14-11.51,1.76-17.91,3.9-17.38,5.81-33.34,18.61-42.36,33.69-.9,1.5-4.69,6.35-1.7,6.76,2.31.31,4.96-7.91,9.36-12.22"/>
  <path class="st1" d="M111.7,36.66c-12.06,2.2-20.72,3.97-31.76,10.24-9.19,5.22-17.44,11.41-23.72,18.59-3.32,3.8-6.29,7.43-9.14,11.77-.7,1.06-3.73,6.05-3.84,6.86-.2,1.52.94,2.47,2.27,1.46,1.41-1.07,5.41-12.23,21.6-26.3,14.94-12.99,38.6-22.26,63.52-20.29,4.99.39,12.69,1.83,17.45,3.29,1.51.46,7.01,3.22,8.07,1.35,2.24-3.97-28.9-9.8-44.45-6.96"/>
  <path class="st0" d="M91.77,199.3c-.38-1.97-2.55-2.7-4-3.62-3.18-2.03-12.22-8.48-14.65-8.21-1.39,2.84-1.26,9.08-1.54,12.64-.18,2.23-.43,4.26-.63,6.46-.66,7.24,3.35,3.43,12.01-1.64,2.06-1.21,7.88-4.14,8.81-5.63"/>
  <path class="st1" d="M174.26,66.52c1.5-2.14,1.26-8.13,1.48-11.11.2-2.7,1.25-9.42.43-11.75-2.6-.57-19.99,10.38-19.99,10.38-1.47,2.11,1.19,2.91,2.99,4.03l9.37,5.98c1.82,1.17,3.25,2.84,5.72,2.48"/>
  <path class="st1" d="M170.96,34.37c1.34.85.93.8,2.72,1.12,1.5-2.7,6.32-11.03,8.12-12.85.65,3.78,2.4,19.28,3.33,20.95,2.2.23,2.74-2.06,3.67-3.62,1.12-1.88,2.02-3.16,3.14-4.96,1.67-2.7,5.75-7.99,5.79-10.45l-2.05-.98c-2.54,2.01-5.69,9.09-8.17,12.39-1.27-1.7-2.92-17.03-3.6-20.52-2.51.27-2.82,2.09-4.04,4.06-1.24,2-1.98,3.08-3.17,4.96-1.18,1.87-5.54,8.15-5.73,9.9"/>
  <path class="st0" d="M60.73,233.09c-6.76.81-5.48-3.34-8.2-5.9l-2.29.98c.28,3.79,4.12,7.56,7.44,8.29,5.25,1.16,9.27-2.21,8.11-7.61-.81-3.78-5.7-7.67-4.55-10.96.71-2.05,3.25-2.24,5.08-1.19,2.1,1.21,2.15,2.65,3.73,4.39l2.54-.77c-.06-5.32-9.59-11.22-14.13-4.85-5.12,7.2,7.1,10.82,2.28,17.62"/>
  <path class="st1" d="M160.86,55.36c.98,1.01,9.91,6.79,11.26,7.08.73-1.54,1.18-11.82,1.22-14.33-1.64.17-7.39,3.76-9.49,4.93-.47.26-1.08.5-1.69.92l-1.3,1.4Z"/>
  <path class="st0" d="M202.88,168.33c-2.28,0-2.73,2.04-4.68,5.35-14.71,24.97-44.59,42.14-74.76,41.84-17.72-.18-29.96-5.56-31.23-5.5-2.02.09-2.37,1.73-.61,2.77,2.1,1.24,13.15,3.98,16.26,4.53,28.63,5.1,59.25-4.6,79.13-24.51,4.88-4.89,10.26-11.26,14.04-17.6,1.14-1.91,3.64-4.56,1.86-6.88"/>
  <path class="st2" d="M219.47,183.01c.5-.36,1.16-1.07,1.47-1.88.46-1.17.09-1.95-.65-2.24-.77-.3-1.37,0-2.27,1.01-1.19,1.37-2.36,1.78-3.43,1.36-1.43-.56-2.15-2.17-1.41-4.08.35-.9.92-1.58,1.4-1.96l1.01.86c-.36.26-.9.79-1.22,1.61-.37.95-.03,1.7.63,1.96.73.29,1.27-.12,2.16-1.1,1.19-1.31,2.27-1.8,3.58-1.28,1.56.61,2.18,2.25,1.36,4.35-.38.97-.97,1.78-1.58,2.26l-1.07-.88Z"/>
  <path class="st2" d="M215.56,182.98c2.93,1.95,2.86,4.83,1.59,6.74-1.43,2.15-4.1,2.76-6.6,1.09-2.65-1.76-3.06-4.54-1.6-6.73,1.51-2.28,4.19-2.72,6.62-1.11M211.46,189.32c1.74,1.15,3.71,1.03,4.65-.38.91-1.38.31-3.27-1.48-4.46-1.34-.89-3.5-1.35-4.63.35-1.13,1.7-.05,3.48,1.46,4.49"/>
  <path class="st2" d="M204.99,194.88c-.91-.66-1.7-1.21-2.45-1.68l.89-1.22,1.54,1.05.05-.06c-.78-1.1-.82-2.42-.14-3.36.12-.16.21-.26.34-.36l1.32.96c-.13.12-.26.25-.4.44-.72.99-.48,2.23.43,3.18.17.17.37.36.61.54l4.11,2.98-1.01,1.38-5.3-3.85Z"/>
</svg>
